<svg version="1.1" id="Layer_1" xmlns="http://www.w3.org/2000/svg" xmlns:xlink="http://www.w3.org/1999/xlink" x="0px"
     y="0px"
     width="100%" viewBox="0 0 180 180" enable-background="new 0 0 180 180" xml:space="preserve">
    <path fill="#9333ea" opacity="1.000000" stroke="none"
          d="
M106.202263,134.019836
	C89.237679,143.829102 72.457367,153.976715 55.253403,163.346436
	C39.973530,171.668274 22.617716,160.714890 22.688339,143.328995
	C22.699827,140.501099 22.766565,137.673447 23.211828,134.097748
	C23.734642,126.617355 23.963720,119.884224 23.922152,113.152756
	C23.903446,110.123611 23.344402,107.097801 23.030533,104.070473
	C22.961622,103.596451 22.892712,103.122421 23.264126,102.371361
	C24.775837,103.088966 25.847223,104.083611 26.971336,105.416046
	C29.987589,110.364662 33.826935,113.639221 39.321411,115.114388
	C50.837227,118.206184 58.994488,112.000244 67.458740,105.472290
	C74.287224,101.809227 80.818359,98.261971 87.753021,94.804085
	C92.899933,97.571800 97.877480,99.912193 102.336052,103.001587
	C110.622055,108.743019 115.769730,116.166298 112.962517,126.986969
	C112.984421,127.008499 112.962097,126.951859 112.734169,127.054428
	C112.313652,127.424500 112.121056,127.692001 111.628372,128.129654
	C110.539642,129.681366 109.751007,131.062912 108.962372,132.444473
	C108.625824,132.675446 108.289276,132.906433 107.455711,133.186676
	C106.706543,133.497223 106.454399,133.758530 106.202263,134.019836
z"/>
    <path fill="#9333ea" opacity="1.000000" stroke="none"
          d="
M101.621658,40.909374
	C111.166527,46.200157 120.740456,51.439396 130.246796,56.798496
	C137.478897,60.875507 144.636902,65.084686 151.806381,69.271866
	C159.287216,73.640900 163.571426,80.247192 163.526138,88.835449
	C163.479782,97.621475 159.109970,104.151764 151.205963,108.453712
	C139.981277,114.563026 128.941864,121.012741 117.416031,126.859421
	C127.221802,104.528343 111.995781,93.693939 96.005219,87.942696
	C89.080666,83.886520 82.499443,79.971245 76.226715,75.766418
	C77.346458,67.645065 77.609131,59.706333 79.109505,52.008846
	C80.935020,42.643242 88.357422,38.439560 97.723686,40.396397
	C99.002899,40.663651 100.321365,40.743015 101.621658,40.909374
z"/>
    <path fill="#9333ea" opacity="1.000000" stroke="none"
          d="
M79.323189,27.765835
	C79.323189,27.765835 79.687752,27.853695 79.877304,28.323587
	C81.910492,29.673788 83.754120,30.554096 85.597748,31.434402
	C85.597748,31.434402 85.907837,31.470232 86.090378,31.965908
	C87.261887,34.441441 87.266602,35.713890 84.497887,36.089539
	C82.990189,36.294098 81.607162,37.417480 80.145195,38.145554
	C80.122482,38.164650 80.064857,38.178806 79.687225,38.103756
	C77.894196,39.030560 76.478790,40.032413 75.045815,41.030327
	C75.028244,41.026386 75.023346,41.062065 74.700546,41.057137
	C73.911140,41.673492 73.444534,42.294781 72.983154,42.951752
	C72.988396,42.987434 72.916275,42.986507 72.692581,43.066681
	C72.184982,43.338306 72.032021,43.604904 72.009964,43.978790
	C72.009926,44.010941 71.945625,44.011261 71.714142,44.089310
	C71.192482,44.371178 71.046165,44.650406 71.033653,45.013855
	C71.023590,45.022663 71.009407,45.045349 70.686401,45.050114
	C69.928146,46.032612 69.492897,47.010345 69.033569,48.291805
	C68.716476,49.112659 68.423477,49.629791 67.751595,50.263165
	C67.164810,56.898438 66.956909,63.417465 66.863548,70.290535
	C67.058731,70.879181 67.139366,71.113785 67.140213,71.620537
	C66.969826,72.259727 66.879219,72.626762 66.537476,73.320389
	C66.454292,80.432846 66.622238,87.218719 66.837372,94.304153
	C66.838600,95.003029 66.792625,95.402351 66.411018,95.902390
	C63.193291,97.592598 60.385128,99.338432 57.415436,100.742683
	C47.961308,105.213158 38.510090,110.453545 28.000340,102.518875
	C26.543756,98.793663 25.261538,95.376312 23.975376,91.492897
	C24.917225,67.961914 21.875744,44.795498 25.733665,21.804724
	C25.733665,21.804724 25.956501,21.817987 26.188049,21.762383
	C28.908676,19.049841 31.397755,16.392904 33.886833,13.735968
	C33.886833,13.735968 34.107826,13.518863 34.679497,13.637979
	C40.907181,12.106151 46.543373,10.667284 52.237518,13.741280
	C52.806747,14.048578 53.794285,13.581011 54.587685,13.473063
	C54.587685,13.473063 54.891354,13.508883 55.080956,13.978477
	C56.310314,14.866889 57.350067,15.285709 58.389824,15.704529
	C58.389824,15.704528 58.735172,15.806837 58.902649,16.277712
	C61.135609,17.723576 63.201088,18.698565 65.266571,19.673553
	C65.266571,19.673553 65.010651,19.918911 65.169037,20.160692
	C67.635193,21.498896 69.942970,22.595320 72.250740,23.691742
	C72.250740,23.691742 72.050285,23.936466 72.187340,24.176888
	C74.657326,25.533484 76.990257,26.649658 79.323189,27.765835
z"/>
    <path fill="#9333ea" opacity="1.000000" stroke="none"
          d="
M67.219994,71.348381
	C67.139366,71.113785 67.058731,70.879181 66.966293,69.838547
	C67.346489,62.737324 67.738487,56.442120 68.130478,50.146919
	C68.423477,49.629791 68.716476,49.112659 69.303482,48.145779
	C70.068123,46.812466 70.538765,45.928905 71.009407,45.045349
	C71.009407,45.045349 71.023590,45.022663 71.268250,44.940544
	C71.809082,44.653675 71.953323,44.371288 71.945625,44.011261
	C71.945625,44.011261 72.009926,44.010941 72.250038,43.922340
	C72.797531,43.634521 72.939575,43.352112 72.916275,42.986507
	C72.916275,42.986507 72.988396,42.987434 73.262100,42.876392
	C74.031647,42.197590 74.527496,41.629826 75.023346,41.062065
	C75.023346,41.062065 75.028244,41.026386 75.373787,40.999405
	C77.167839,40.041214 78.616348,39.110008 80.064857,38.178802
	C80.064857,38.178806 80.122482,38.164650 80.549263,38.131943
	C85.481560,37.756954 89.987076,37.414677 94.492592,37.072395
	C94.674118,37.235672 94.878174,37.362804 95.506546,37.688919
	C96.290375,38.008121 96.672401,38.092194 97.054428,38.176262
	C98.451164,38.893837 99.847900,39.611408 101.433151,40.619179
	C100.321365,40.743015 99.002899,40.663651 97.723686,40.396397
	C88.357422,38.439560 80.935020,42.643242 79.109505,52.008846
	C77.609131,59.706333 77.346458,67.645065 75.895935,75.677803
	C72.577766,74.368614 69.898880,72.858498 67.219994,71.348381
z"/>
    <path fill="#9333ea" opacity="1.000000" stroke="none"
          d="
M25.439537,21.997335
	C21.875744,44.795498 24.917225,67.961914 23.666273,91.513649
	C23.154730,92.011292 22.948347,92.022118 22.741964,92.032951
	C22.561964,90.914009 22.228043,89.795494 22.224941,88.676064
	C22.174490,70.458275 21.992277,52.237595 22.284674,34.024708
	C22.348238,30.065498 24.146246,26.134134 25.439537,21.997335
z"/>
    <path fill="#9333ea" opacity="1.000000" stroke="none"
          d="
M96.348557,88.083588
	C111.995781,93.693939 127.221802,104.528343 117.047546,126.786636
	C117.086327,127.171432 117.020554,127.102638 116.746536,127.190659
	C116.294746,127.670746 116.116974,128.062805 115.939209,128.454865
	C113.845085,129.709320 111.750969,130.963760 109.309601,132.331329
	C109.751007,131.062912 110.539642,129.681366 111.874939,128.050980
	C112.601768,127.518723 112.781929,127.235291 112.962097,126.951859
	C112.962097,126.951859 112.984421,127.008499 113.286995,126.852692
	C118.775063,120.293999 119.373871,113.344780 116.470459,105.747238
	C112.769432,96.062508 103.373489,93.989525 95.749825,89.408928
	C96.030861,88.788857 96.189705,88.436226 96.348557,88.083588
z"/>
    <path fill="#9333ea" opacity="1.000000" stroke="none"
          d="
M94.349640,36.729065
	C89.987076,37.414677 85.481560,37.756954 80.571976,38.112843
	C81.607162,37.417480 82.990189,36.294098 84.497887,36.089539
	C87.266602,35.713890 87.261887,34.441441 86.201828,32.075165
	C88.822731,33.254406 91.514717,34.820072 94.349640,36.729065
z"/>
    <path fill="#9333ea" opacity="1.000000" stroke="none"
          d="
M54.358398,13.193205
	C53.794285,13.581011 52.806747,14.048578 52.237518,13.741280
	C46.543373,10.667284 40.907181,12.106151 34.833794,13.624411
	C40.871189,9.340832 47.460377,9.771520 54.358398,13.193205
z"/>
    <path fill="#9333ea" opacity="1.000000" stroke="none"
          d="
M22.694624,92.483765
	C22.948347,92.022118 23.154730,92.011292 23.670216,91.979721
	C25.261538,95.376312 26.543756,98.793663 27.723593,102.717644
	C27.387011,103.842270 27.152811,104.460258 26.918610,105.078247
	C25.847223,104.083611 24.775837,103.088966 23.374104,102.025070
	C22.911600,98.948738 22.779442,95.941658 22.694624,92.483765
z"/>
    <path fill="#9333ea" opacity="1.000000" stroke="none"
          d="
M22.908211,104.518524
	C23.344402,107.097801 23.903446,110.123611 23.922152,113.152756
	C23.963720,119.884224 23.734642,126.617355 23.325106,133.636536
	C22.951509,124.271049 22.868700,114.618813 22.908211,104.518524
z"/>
    <path fill="#9333ea" opacity="1.000000" stroke="none"
          d="
M33.532494,13.764311
	C31.397755,16.392904 28.908676,19.049841 26.075264,21.746307
	C28.213339,19.121441 30.695747,16.457048 33.532494,13.764311
z"/>
    <path fill="#9333ea" opacity="1.000000" stroke="none"
          d="
M79.172058,27.462244 
	C76.990257,26.649658 74.657326,25.533484 72.285233,24.057514 
	C74.504356,24.851364 76.762642,26.005009 79.172058,27.462244 
z"/>
    <path fill="#9333ea" opacity="1.000000" stroke="none"
          d="
M72.108589,23.394222 
	C69.942970,22.595320 67.635193,21.498896 65.296623,20.042099 
	C67.499359,20.820049 69.732903,21.958376 72.108589,23.394222 
z"/>
    <path fill="#9333ea" opacity="1.000000" stroke="none"
          d="
M65.129547,19.377430 
	C63.201088,18.698565 61.135609,17.723576 59.029274,16.405769 
	C60.989792,17.069071 62.991158,18.075188 65.129547,19.377430 
z"/>
    <path fill="#9333ea" opacity="1.000000" stroke="none"
          d="
M85.408997,31.166674 
	C83.754120,30.554096 81.910492,29.673788 80.017036,28.448616 
	C81.718224,29.035482 83.469238,29.967213 85.408997,31.166674 
z"/>
    <path fill="#9333ea" opacity="1.000000" stroke="none"
          d="
M58.227798,15.412174 
	C57.350067,15.285709 56.310314,14.866889 55.186958,14.088652 
	C56.090828,14.192762 57.078300,14.656291 58.227798,15.412174 
z"/>
    <path fill="#9333ea" opacity="1.000000" stroke="none"
          d="
M96.864319,37.924908 
	C96.672401,38.092194 96.290375,38.008121 95.684570,37.722176 
	C95.865273,37.571388 96.269737,37.622471 96.864319,37.924908 
z"/>
    <path fill="#9333ea" opacity="1.000000" stroke="none"
          d="
M116.241196,128.290680 
	C116.116974,128.062805 116.294746,127.670746 116.779289,127.156136 
	C116.905106,127.397888 116.724136,127.762184 116.241196,128.290680 
z"/>
    <path fill="#9333ea" opacity="1.000000" stroke="none"
          d="
M106.475891,133.975113 
	C106.454399,133.758530 106.706543,133.497223 107.247284,133.203033 
	C107.273758,133.423553 107.011635,133.676971 106.475891,133.975113 
z"/>

    <path fill="#9333ea" opacity="1.000000" stroke="none"
          d="
M66.411018,95.902390 
	C66.859520,98.781250 66.972389,101.760834 67.123322,105.164261 
	C58.994488,112.000244 50.837227,118.206184 39.321411,115.114388 
	C33.826935,113.639221 29.987589,110.364662 26.971336,105.416046 
	C27.152811,104.460258 27.387011,103.842270 27.897957,103.025513 
	C38.510090,110.453545 47.961308,105.213158 57.415436,100.742683 
	C60.385128,99.338432 63.193291,97.592598 66.411018,95.902390 
z"/>
    <path fill="#9333ea" opacity="1.000000" stroke="none"
          d="
M87.753021,94.804092 
	C89.883858,93.082924 92.418221,91.451126 95.290108,89.747849 
	C103.373489,93.989525 112.769432,96.062508 116.470459,105.747238 
	C119.373871,113.344780 118.775063,120.293999 113.265091,126.831154 
	C115.769730,116.166298 110.622055,108.743019 102.336052,103.001587 
	C97.877480,99.912193 92.899933,97.571800 87.753021,94.804092 
z"/>
    <path fill="#9333ea" opacity="1.000000" stroke="none"
          d="
M112.734161,127.054428 
	C112.781929,127.235291 112.601768,127.518723 112.175034,127.880829 
	C112.121056,127.692001 112.313652,127.424500 112.734161,127.054428 
z"/>
    <path fill="#9333ea" opacity="1.000000" stroke="none"
          d="
M67.751602,50.263165 
	C67.738487,56.442120 67.346489,62.737324 66.851746,69.484512 
	C66.956909,63.417465 67.164810,56.898438 67.751602,50.263165 
z"/>
    <path fill="#9333ea" opacity="1.000000" stroke="none"
          d="
M66.537483,73.320389 
	C66.866684,79.693199 66.944748,86.392593 66.906494,93.548294 
	C66.622238,87.218719 66.454292,80.432846 66.537483,73.320389 
z"/>
    <path fill="#9333ea" opacity="1.000000" stroke="none"
          d="
M79.687225,38.103752 
	C78.616348,39.110008 77.167839,40.041214 75.391357,41.003342 
	C76.478790,40.032413 77.894196,39.030560 79.687225,38.103752 
z"/>
    <path fill="#9333ea" opacity="1.000000" stroke="none"
          d="
M70.686401,45.050114 
	C70.538765,45.928905 70.068123,46.812466 69.327568,47.842052 
	C69.492897,47.010345 69.928146,46.032612 70.686401,45.050114 
z"/>
    <path fill="#9333ea" opacity="1.000000" stroke="none"
          d="
M74.700546,41.057137 
	C74.527496,41.629826 74.031647,42.197590 73.256859,42.840714 
	C73.444534,42.294781 73.911140,41.673492 74.700546,41.057137 
z"/>
    <path fill="#9333ea" opacity="1.000000" stroke="none"
          d="
M71.714142,44.089310 
	C71.953323,44.371288 71.809082,44.653675 71.278305,44.931740 
	C71.046165,44.650406 71.192482,44.371178 71.714142,44.089310 
z"/>
    <path fill="#9333ea" opacity="1.000000" stroke="none"
          d="
M72.692581,43.066681 
	C72.939575,43.352112 72.797531,43.634521 72.250076,43.890190 
	C72.032021,43.604904 72.184982,43.338306 72.692581,43.066681 
z"/>
</svg>